<svg enable-background="new 0 0 512 512" height="512" viewBox="0 0 512 512" width="512" xmlns="http://www.w3.org/2000/svg"><path d="m426.333.5h-340.666c-46.842 0-85.167 38.325-85.167 85.167v340.667c0 46.842 38.325 85.167 85.167 85.167h340.667c46.842 0 85.167-38.325 85.167-85.167v-340.667c-.001-46.842-38.326-85.167-85.168-85.167zm-181.004 260.024c-17.736 17.736-45.611 26.065-77.103 26.065-8.326 0-15.927-.365-21.72-1.451v91.945h-44.159v-240.72c15.927-2.895 38.009-5.069 68.05-5.069 32.582 0 56.473 6.878 72.039 19.911 14.48 11.947 23.89 31.131 23.89 53.936-.001 23.168-7.24 42.351-20.997 55.383zm92.652 120.182c-21.358 0-40.542-5.069-53.574-12.31l8.687-32.216c10.135 6.154 29.322 12.671 45.249 12.671 19.545 0 28.236-7.964 28.236-19.549 0-11.943-7.239-18.099-28.96-25.7-34.391-11.947-48.866-30.769-48.505-51.403 0-31.131 25.7-55.383 66.604-55.383 19.549 0 36.562 5.069 46.695 10.496l-8.687 31.493c-7.602-4.342-21.721-10.135-37.285-10.135-15.928 0-24.615 7.602-24.615 18.46 0 11.224 8.326 16.655 30.77 24.618 31.854 11.582 46.696 27.871 47.058 53.937-.001 31.854-24.976 55.021-71.673 55.021zm-116.181-173.756c0 28.598-20.273 44.887-53.574 44.887-9.049 0-16.289-.362-21.72-1.809v-82.534c4.708-1.085 13.395-2.171 25.704-2.171 30.769 0 49.59 14.48 49.59 41.627z"/></svg>