<svg viewBox="0 0 1024 1176.463" xmlns="http://www.w3.org/2000/svg"><path d="M853.875 544.746c-.838 7.548-1.238 13.178-1.637 16.772-.363 2.846-2.7 5.044-5.577 5.19l-.013.002c-2.396 0-6.788.4-13.178.838-6.304.745-13.606 1.17-21.007 1.17-.744 0-1.487-.004-2.228-.013h.113c-9.185 0-18.81-1.6-29.152-1.6H654.604c1.622 13.333 6.017 25.374 12.594 35.91l-.214-.368c7.085 10.665 17.005 18.94 28.69 23.843l.422.157c14.414 6.324 31.216 10.005 48.877 10.005.8 0 1.6-.008 2.4-.023h-.12c14.867-.302 29.168-1.887 43.043-4.65l-1.553.26c13.25-1.725 25.258-4.946 36.565-9.54l-.98.353c1.996-1.557 3.194-.8 3.194 3.195v61.14c-.072 1.72-.373 3.344-.874 4.88l.036-.13c-.73 1.12-1.648 2.05-2.718 2.775l-.034.022c-11.514 5.21-24.92 9.37-38.91 11.83l-1.026.15c-15.32 3.086-32.934 4.853-50.96 4.853-2.02 0-4.034-.022-6.043-.066l.3.005c-1.535.045-3.34.07-5.15.07-25.788 0-50.37-5.162-72.772-14.51l1.25.463c-20.068-8.877-36.92-21.75-50.176-37.715l-.18-.223c-12.154-14.726-21.605-32.188-27.288-51.272l-.266-1.042c-5.3-17.448-8.35-37.5-8.35-58.266 0-22.716 3.65-44.58 10.398-65.037l-.42 1.466c6.82-21.05 17.04-39.262 30.163-54.967l-.21.258c13.09-15.752 29.172-28.528 47.436-37.558l.845-.378c17.73-7.912 38.42-12.52 60.187-12.52 2.287 0 4.562.05 6.824.152l-.32-.01c1-.026 2.18-.04 3.365-.04 21.192 0 41.315 4.573 59.438 12.786l-.906-.367c16.785 7.392 30.84 18.248 41.77 31.74l.16.207c10.165 12.967 18.337 28.09 23.706 44.484l.295 1.04c4.787 14.426 7.548 31.034 7.548 48.287v.456-.024c0 9.584-.4 17.97-.76 25.558zM540.352 704.122h-83.46c-.165.016-.356.025-.55.025-2.763 0-5.095-1.847-5.83-4.375l-.01-.043-32.746-95.842H269.202l-30.35 94.244c-.658 3.232-3.477 5.63-6.855 5.63-.258 0-.512-.015-.763-.042l.03.003H156.19c-4.394 0-5.592-2.396-4.394-7.188l128.59-368.63c1.197-3.994 2.395-7.588 3.993-12.38 1.523-7.74 2.395-16.64 2.395-25.744v-.224.012c-.02-.15-.032-.327-.032-.504 0-1.927 1.378-3.532 3.202-3.884l.025-.004h103.428c2.796 0 4.792 1.198 5.192 3.194l145.76 409.324c1.197 4.393.037 6.43-3.995 6.43zm281.136-659.35H202.37c-93.656 0-169.578 75.922-169.578 169.577v.15-.01V809.65c0 93.655 75.922 169.577 169.577 169.577H821.63c93.656 0 169.578-75.922 169.578-169.577v-.15.007V214.49v-.14c0-93.656-75.922-169.578-169.577-169.578h-.15.008zM716.464 449.7c-.94-.056-2.04-.088-3.146-.088-21.634 0-40.414 12.217-49.818 30.13l-.148.308c-4.426 8.336-7.533 18.06-8.748 28.363l-.037.39h84.22c10.384 0 17.97 0 22.763-.4 3.453-.296 6.587-1.447 9.255-3.24l-.07.045v-3.99-.03c0-5.278-.892-10.348-2.533-15.068l.097.322c-6.97-21.495-26.814-36.764-50.225-36.764-.567 0-1.132.01-1.695.027l.082-.002zM373.83 461.284c-3.994-12.38-7.588-24.36-11.584-36.736s-7.588-23.96-10.783-35.54c-3.194-11.183-5.99-21.566-8.785-31.15h-.797c-4.306 20.83-8.992 38.108-14.568 54.978l.992-3.463c-5.99 19.168-11.98 39.135-18.368 59.102-5.192 20.367-11.584 39.135-17.57 55.908h101.43c-2.396-8.384-5.59-18.368-9.185-28.753-3.593-10.786-7.187-22.367-10.78-34.347z"/></svg>