<svg viewBox="0 0 1024 1176.463" xmlns="http://www.w3.org/2000/svg"><path d="M750.05 454.376c3.995.404 7.61 1.08 11.115 2.03l-.478-.11v175.75c-4.145 1.284-8.97 2.194-13.947 2.547l-.208.012q-8.36.673-16.755.64h-.49c-11.688 0-22.934-1.887-33.45-5.374l.75.217c-10.562-3.386-19.618-8.906-27.053-16.094l.02.018c-7.76-7.817-13.898-17.26-17.856-27.768l-.18-.544c-4.3-11.483-6.79-24.753-6.79-38.604 0-.923.012-1.843.034-2.76l-.003.135c-.126-1.703-.196-3.688-.196-5.69 0-32.8 19.05-61.15 46.69-74.59l.49-.217c12.865-6.51 28.045-10.32 44.115-10.32.334 0 .67 0 1.004.004h-.05c4.437.08 8.836.28 13.235.72zm98.253 232.414c-18.585 8.004-40.382 14.69-63.022 18.998l-2 .317c-18.564 3.617-39.944 5.723-61.802 5.798h-.062c-.875.014-1.907.022-2.94.022-30.09 0-58.627-6.64-84.23-18.53l1.235.514c-25.407-11.952-45.972-30.652-59.878-53.807l-.345-.62c-13.86-24.4-22.03-53.6-22.03-84.71 0-2.244.042-4.48.126-6.703l-.01.32c-.003-.4-.005-.877-.005-1.353 0-30.515 8.134-59.13 22.35-83.795l-.43.814c15.268-26.256 36.94-47.288 62.932-61.362l.85-.42c27.61-14.724 60.385-23.37 95.18-23.37 5.02 0 10 .18 14.93.533l-.663-.038q5.16.3 12.237.96V253.514c0-3 1.28-4.518 3.88-4.518h81.095c.142-.02.307-.033.474-.033 1.727 0 3.157 1.274 3.4 2.933l.003.02c.02.143.03.31.03.48s-.01.335-.032.498l.002-.02v380.57c0 7.32.32 15.236.96 23.834.64 8.556 1.2 16.274 1.6 23.152.008.122.013.265.013.41 0 2.634-1.563 4.903-3.812 5.932l-.04.017zM541.15 703.585h-91.455c-6.4 0-10.957-.24-13.516-4.518q-12.898-25.133-25.754-49.906-13.272-25.488-27.352-50.544-14.625-25.933-28.672-52.185h-.64q-13 25.936-26.712 51.506-13.795 25.732-27.352 51.185-13.484 25.454-27.632 50.546c-1.76 3.88-4.76 4.278-9.078 4.278h-88.172c-1.72 0-2.68.68-2.88-1.04-.045-.29-.07-.624-.07-.965 0-1.32.383-2.547 1.046-3.58l-.016.026 124.244-204.14-121.044-204.662c-1.32-1.72-1.52-3.12-.64-4.28.848-.99 2.1-1.615 3.5-1.615.134 0 .266.005.397.016h-.017 90.774c.18-.01.388-.013.6-.013 1.87 0 3.657.357 5.296 1.006l-.097-.035c1.55.902 2.835 2.097 3.813 3.52l.026.04q11.575 25.79 25.752 51.504 14.155 25.73 28.632 50.864 14.456 25.133 26.712 50.866h.64q12.776-26.394 26.073-51.505 13.315-25.133 27.03-50.546 13.857-25.494 26.713-50.546c.506-1.67 1.39-3.097 2.558-4.237l.003-.002c1.242-.632 2.71-1.002 4.262-1.002.316 0 .628.015.936.045l-.038-.003h84.332c.267-.07.573-.108.89-.108 2.04 0 3.694 1.654 3.694 3.695 0 1.145-.52 2.17-1.34 2.847l-.005.004.04.16-119.766 197.664 128.123 209.9c.53.927.842 2.038.842 3.22 0 .576-.074 1.133-.212 1.664l.01-.046c-.4 1.44-1.88.48-4.48.92zm244.17-659.45H238.68c-114.07 0-206.54 92.47-206.54 206.54v522.65c0 114.07 92.47 206.54 206.54 206.54H785.32c114.07 0 206.54-92.47 206.54-206.54v-522.65c0-114.07-92.47-206.54-206.54-206.54z"/></svg>